<svg xmlns="http://www.w3.org/2000/svg" viewBox="0 0 1066.67 1066.67" width="100%" height="100%" role="img" aria-label="Potatoblock"><defs><clipPath id="c1"><rect x="-470.169" y="-593.723" width="800" height="800"/></clipPath><clipPath id="c2"><rect x="-629.913" y="-579.181" width="800" height="800"/></clipPath><clipPath id="c3"><rect x="-569.617" y="-448.935" width="800" height="800"/></clipPath><clipPath id="c4"><rect x="-420.757" y="-407.528" width="800" height="800"/></clipPath><clipPath id="c5"><rect x="-415.663" y="-499.364" width="800" height="800"/></clipPath><clipPath id="c6"><rect x="-519.791" y="-493.37" width="800" height="800"/></clipPath><clipPath id="c7"><rect x="-288.433" y="-471.137" width="800" height="800"/></clipPath><clipPath id="c8"><rect x="-376.242" y="-258.218" width="800" height="800"/></clipPath><clipPath id="c9"><rect x="-469.946" y="-544.323" width="800" height="800"/></clipPath></defs><g transform="matrix(1.3333333,0,0,-1.3333333,626.89187,275.03587)" clip-path="url(#c1)"><path d="M0 0a70.11 70.11 0 0 0-0.22-49.4l-42.3 24.53A69.63 69.63 0 0 0 0 0" fill="#d1a140"/></g><g transform="matrix(1.3333333,0,0,-1.3333333,839.88413,294.42573)" clip-path="url(#c2)"><path d="m0 0-110.12-63.61-40.08 23.2c7.55 18.65 7.99 39.520.89 58.84l-3.11 8.66-9.21-1.56c-20.2-3.55-38.19-14.43-50.4-30.3L-220.25 0l-110.12-63.61L-440.49 0l110.12 63.5v0.11l110.12 63.5 110.12-63.5z" fill="#d1a140"/></g><g transform="matrix(1.3333333,0,0,-1.3333333,759.4896,468.0872)" clip-path="url(#c3)"><path d="M0 0v-127.22l-110.12-63.5v-127.22L0-254.44v0.11l110.12 63.5V63.61z" fill="#b37022"/></g><g transform="matrix(1.3333333,0,0,-1.3333333,561.00907,523.29627)" clip-path="url(#c4)"><path d="M0 0v-127.11l110.12 63.5V63.61z" fill="#e1a330"/></g><g transform="matrix(1.3333333,0,0,-1.3333333,554.21747,400.8476)" clip-path="url(#c5)"><path d="M0 0c-6.11 16.76-5.88 35.75 1.77 53.06L45.18 28.09C34.08 12.88 17.76 3.11 0 0" fill="#b37022"/></g><g transform="matrix(1.3333333,0,0,-1.3333333,693.05467,408.83987)" clip-path="url(#c6)"><path d="m0 0-110.12-63.61L-220.25 0l107.01 61.83a81.84 81.84 0 0 1-1.33-59.61l3.22-8.77 9.21 1.55C-80.59-1.22-61.61 10.88-49.29 28.53z" fill="#b37022"/></g><g transform="matrix(1.3333333,0,0,-1.3333333,384.5768,438.4844)" clip-path="url(#c7)"><path d="M0 0v-127.22l110.01-63.5h0.11v127.11z" fill="#d1a140"/></g><g transform="matrix(1.3333333,0,0,-1.3333333,501.65627,722.37627)" clip-path="url(#c8)"><path d="m0 0-110.01 63.5v127.22l-110.12 63.61V-0.11l110.12-63.5L0.11-127.22V0z" fill="#e1a330"/></g><g transform="matrix(1.3333333,0,0,-1.3333333,626.59507,340.9024)" clip-path="url(#c9)"><path d="M0 0c-1.22-3.55-2.89-7.1-4.88-10.54-1.33-2.22-2.66-4.33-4.22-6.33-11.1-15.21-27.42-24.98-45.18-28.09-6.11 16.76-5.88 35.75 1.77 53.06 1 2.33 2.11 4.66 3.44 6.88a64.54 64.54 0 0 0 6.77 9.55A69.63 69.63 0 0 0 0.23 49.4 70.11 70.11 0 0 0 0 0" fill="#71bb31"/></g></svg>